# xmcd
#
# Track frame offsets:
#	150
#	13287
#	27502
#	42105
#	58577
#	72385
#	87672
#	98780
#	115077
#	131410
#	144540
#	162870
#
# Disc length: 2321 seconds
#
# Revision: 1
# Processed by: cddbd v1.5.2PL0 Copyright (c) Steve Scherf et al.
# Submitted via: audiograbber 1.83.01
#
DISCID=a6090f0c
DTITLE=Various Artist - CDX 42 October 1992
DYEAR=1992
DGENRE=Country
TTITLE0=Chris Ledoux - Cadillac Ranch
TTITLE1=John Gorka - I Don't Feel Like A Train
TTITLE2=The Mavericks - I Got You
TTITLE3=Lee Greenwood - I Never Thought Your Memory Would Ever Go This Far
TTITLE4=Diamond Rio - In A Week Or Two
TTITLE5=Confederate Railroad - Queen Of Memphis
TTITLE6=Alan Jackson - She's Got The Rhythm (And I Got The Blues)
TTITLE7=Lisa Stewart - Somebody's In Love
TTITLE8=Lionel Cartwright - Standing On The Promises
TTITLE9=Royce Ryan - Too Good Not To Be True
TTITLE10=Trisha Yearwood - Walkaway Joe
TTITLE11=The Swing Shift Band featuring Ray Pennington - You Pushed Me To The L
TTITLE11=imit
EXTD=
EXTT0=
EXTT1=
EXTT2=
EXTT3=
EXTT4=
EXTT5=
EXTT6=
EXTT7=
EXTT8=
EXTT9=
EXTT10=
EXTT11=
PLAYORDER=
